<mxfile host="app.diagrams.net" modified="2024-06-05T10:33:49.661Z" agent="Mozilla/5.0 (Windows NT 10.0; Win64; x64) AppleWebKit/537.36 (KHTML, like Gecko) Chrome/125.0.0.0 Safari/537.36" etag="zXcx3CMIl4k7gz45bqIr" version="24.4.9" type="device">
  <diagram name="Страница — 1" id="sCLxACp7-v4A_Zei_p1u">
    <mxGraphModel dx="2263" dy="893" grid="1" gridSize="10" guides="1" tooltips="1" connect="1" arrows="1" fold="1" page="1" pageScale="1" pageWidth="827" pageHeight="1169" math="0" shadow="0">
      <root>
        <mxCell id="0" />
        <mxCell id="1" parent="0" />
        <mxCell id="PT3gJ2cUy_x9MqQjI6_g-1" value="User" style="shape=umlActor;verticalLabelPosition=bottom;verticalAlign=top;html=1;outlineConnect=0;" vertex="1" parent="1">
          <mxGeometry x="-10" y="170" width="30" height="60" as="geometry" />
        </mxCell>
        <mxCell id="PT3gJ2cUy_x9MqQjI6_g-2" value="Gateway" style="rounded=1;whiteSpace=wrap;html=1;fillColor=#fff2cc;strokeColor=default;" vertex="1" parent="1">
          <mxGeometry x="160" y="160" width="120" height="80" as="geometry" />
        </mxCell>
        <mxCell id="PT3gJ2cUy_x9MqQjI6_g-3" value="Account service" style="rounded=1;whiteSpace=wrap;html=1;fillColor=#fff2cc;strokeColor=default;" vertex="1" parent="1">
          <mxGeometry x="160" y="360" width="120" height="80" as="geometry" />
        </mxCell>
        <mxCell id="PT3gJ2cUy_x9MqQjI6_g-4" value="Library service" style="rounded=1;whiteSpace=wrap;html=1;fillColor=#fff2cc;strokeColor=default;" vertex="1" parent="1">
          <mxGeometry x="400" y="160" width="120" height="80" as="geometry" />
        </mxCell>
        <mxCell id="PT3gJ2cUy_x9MqQjI6_g-5" value="Order service" style="rounded=1;whiteSpace=wrap;html=1;fillColor=#fff2cc;strokeColor=default;" vertex="1" parent="1">
          <mxGeometry x="400" y="360" width="120" height="80" as="geometry" />
        </mxCell>
        <mxCell id="PT3gJ2cUy_x9MqQjI6_g-6" value="ActiveMQ" style="strokeWidth=1;html=1;shape=mxgraph.flowchart.direct_data;whiteSpace=wrap;fillColor=#f8cecc;strokeColor=default;" vertex="1" parent="1">
          <mxGeometry x="640" y="170" width="120" height="60" as="geometry" />
        </mxCell>
        <mxCell id="PT3gJ2cUy_x9MqQjI6_g-7" value="Notification service" style="rounded=1;whiteSpace=wrap;html=1;fillColor=#fff2cc;strokeColor=default;" vertex="1" parent="1">
          <mxGeometry x="880" y="160" width="120" height="80" as="geometry" />
        </mxCell>
        <mxCell id="PT3gJ2cUy_x9MqQjI6_g-10" value="" style="endArrow=classic;html=1;rounded=0;entryX=0.75;entryY=0;entryDx=0;entryDy=0;exitX=0.75;exitY=1;exitDx=0;exitDy=0;" edge="1" parent="1" source="PT3gJ2cUy_x9MqQjI6_g-2" target="PT3gJ2cUy_x9MqQjI6_g-3">
          <mxGeometry width="50" height="50" relative="1" as="geometry">
            <mxPoint x="220" y="280" as="sourcePoint" />
            <mxPoint x="290" y="280" as="targetPoint" />
          </mxGeometry>
        </mxCell>
        <mxCell id="PT3gJ2cUy_x9MqQjI6_g-11" value="" style="endArrow=classic;html=1;rounded=0;exitX=0.25;exitY=0;exitDx=0;exitDy=0;dashed=1;entryX=0.25;entryY=1;entryDx=0;entryDy=0;" edge="1" parent="1" source="PT3gJ2cUy_x9MqQjI6_g-3" target="PT3gJ2cUy_x9MqQjI6_g-2">
          <mxGeometry width="50" height="50" relative="1" as="geometry">
            <mxPoint x="170" y="231" as="sourcePoint" />
            <mxPoint x="100" y="231" as="targetPoint" />
          </mxGeometry>
        </mxCell>
        <mxCell id="PT3gJ2cUy_x9MqQjI6_g-12" value="" style="endArrow=classic;html=1;rounded=0;entryX=0;entryY=0.25;entryDx=0;entryDy=0;" edge="1" parent="1" target="PT3gJ2cUy_x9MqQjI6_g-4">
          <mxGeometry width="50" height="50" relative="1" as="geometry">
            <mxPoint x="280" y="180" as="sourcePoint" />
            <mxPoint x="350" y="180" as="targetPoint" />
          </mxGeometry>
        </mxCell>
        <mxCell id="PT3gJ2cUy_x9MqQjI6_g-13" value="" style="endArrow=classic;html=1;rounded=0;exitX=0.003;exitY=0.764;exitDx=0;exitDy=0;exitPerimeter=0;dashed=1;entryX=1;entryY=0.75;entryDx=0;entryDy=0;" edge="1" parent="1" target="PT3gJ2cUy_x9MqQjI6_g-2">
          <mxGeometry width="50" height="50" relative="1" as="geometry">
            <mxPoint x="400" y="220" as="sourcePoint" />
            <mxPoint x="330" y="220" as="targetPoint" />
          </mxGeometry>
        </mxCell>
        <mxCell id="PT3gJ2cUy_x9MqQjI6_g-14" value="" style="endArrow=classic;html=1;rounded=0;entryX=0;entryY=0.25;entryDx=0;entryDy=0;" edge="1" parent="1">
          <mxGeometry width="50" height="50" relative="1" as="geometry">
            <mxPoint x="520" y="180" as="sourcePoint" />
            <mxPoint x="640" y="180" as="targetPoint" />
          </mxGeometry>
        </mxCell>
        <mxCell id="PT3gJ2cUy_x9MqQjI6_g-15" value="" style="endArrow=classic;html=1;rounded=0;entryX=0;entryY=0.25;entryDx=0;entryDy=0;" edge="1" parent="1">
          <mxGeometry width="50" height="50" relative="1" as="geometry">
            <mxPoint x="760" y="180" as="sourcePoint" />
            <mxPoint x="880" y="180" as="targetPoint" />
          </mxGeometry>
        </mxCell>
        <mxCell id="PT3gJ2cUy_x9MqQjI6_g-16" value="" style="endArrow=classic;html=1;rounded=0;exitX=0.003;exitY=0.764;exitDx=0;exitDy=0;exitPerimeter=0;dashed=1;entryX=1;entryY=0.75;entryDx=0;entryDy=0;" edge="1" parent="1">
          <mxGeometry width="50" height="50" relative="1" as="geometry">
            <mxPoint x="640" y="220" as="sourcePoint" />
            <mxPoint x="520" y="220" as="targetPoint" />
          </mxGeometry>
        </mxCell>
        <mxCell id="PT3gJ2cUy_x9MqQjI6_g-17" value="" style="endArrow=classic;html=1;rounded=0;exitX=0.003;exitY=0.764;exitDx=0;exitDy=0;exitPerimeter=0;dashed=1;entryX=1;entryY=0.75;entryDx=0;entryDy=0;" edge="1" parent="1">
          <mxGeometry width="50" height="50" relative="1" as="geometry">
            <mxPoint x="880" y="220" as="sourcePoint" />
            <mxPoint x="760" y="220" as="targetPoint" />
          </mxGeometry>
        </mxCell>
        <mxCell id="PT3gJ2cUy_x9MqQjI6_g-18" value="" style="endArrow=classic;html=1;rounded=0;entryX=0.75;entryY=0;entryDx=0;entryDy=0;exitX=0.75;exitY=1;exitDx=0;exitDy=0;" edge="1" parent="1">
          <mxGeometry width="50" height="50" relative="1" as="geometry">
            <mxPoint x="490" y="240" as="sourcePoint" />
            <mxPoint x="490" y="360" as="targetPoint" />
          </mxGeometry>
        </mxCell>
        <mxCell id="PT3gJ2cUy_x9MqQjI6_g-19" value="" style="endArrow=classic;html=1;rounded=0;exitX=0.25;exitY=0;exitDx=0;exitDy=0;dashed=1;entryX=0.163;entryY=1.001;entryDx=0;entryDy=0;entryPerimeter=0;" edge="1" parent="1" target="PT3gJ2cUy_x9MqQjI6_g-4">
          <mxGeometry width="50" height="50" relative="1" as="geometry">
            <mxPoint x="420" y="360" as="sourcePoint" />
            <mxPoint x="420" y="240" as="targetPoint" />
          </mxGeometry>
        </mxCell>
        <mxCell id="PT3gJ2cUy_x9MqQjI6_g-21" value="" style="endArrow=classic;html=1;rounded=0;entryX=0;entryY=0.25;entryDx=0;entryDy=0;" edge="1" parent="1">
          <mxGeometry width="50" height="50" relative="1" as="geometry">
            <mxPoint x="40" y="180" as="sourcePoint" />
            <mxPoint x="160" y="180" as="targetPoint" />
          </mxGeometry>
        </mxCell>
        <mxCell id="PT3gJ2cUy_x9MqQjI6_g-22" value="" style="endArrow=classic;html=1;rounded=0;exitX=0.003;exitY=0.764;exitDx=0;exitDy=0;exitPerimeter=0;dashed=1;entryX=1;entryY=0.75;entryDx=0;entryDy=0;" edge="1" parent="1">
          <mxGeometry width="50" height="50" relative="1" as="geometry">
            <mxPoint x="160" y="220" as="sourcePoint" />
            <mxPoint x="40" y="220" as="targetPoint" />
          </mxGeometry>
        </mxCell>
      </root>
    </mxGraphModel>
  </diagram>
</mxfile>
